<svg xmlns="http://www.w3.org/2000/svg" viewBox="0 0 100 100">
  <defs>
    <linearGradient id="g" x1="0%" y1="0%" x2="100%" y2="100%">
      <stop offset="0%" style="stop-color:#fb923c"/>
      <stop offset="100%" style="stop-color:#ea580c"/>
    </linearGradient>
  </defs>
  <rect width="100" height="100" rx="22" fill="url(#g)"/>
  <path d="M50 25C44 25 38 28 35 33C32 28 26 25 20 25C12 25 5 32 5 40C5 60 50 80 50 80C50 80 95 60 95 40C95 32 88 25 80 25C74 25 68 28 65 33C62 28 56 25 50 25Z" fill="white" transform="translate(0, 2) scale(0.85)" transform-origin="50 50"/>
</svg>