<svg xmlns="http://www.w3.org/2000/svg" viewBox="0 0 120 120" width="120" height="120" role="img" aria-label="AidUp hand holding a heart">
  <defs>
    <linearGradient id="auGrad" x1="0" y1="0" x2="1" y2="1">
      <stop offset="0" stop-color="#3ddc84"/>
      <stop offset="1" stop-color="#1f9d55"/>
    </linearGradient>
  </defs>
  <!-- Hand -->
  <path fill="url(#auGrad)" d="M60 18c-7 0-12 5-12 11v26l-9-7c-3-2-7-1.5-9 .5-2 2-2.5 5-.5 7.5l18 22c4 5 9 7 16 7h14c9 0 16-7 16-16V46c0-4-3-7-7-7s-7 3-7 7v-3c0-4-3-7-7-7s-7 3-7 7v-4c0-4-3-7-7-7s-7 3-7 7v-3c0-6-5-11-12-11z"/>
  <!-- Heart -->
  <path fill="#ffffff" d="M60 78c-1-4-6-7-10-4-3 2-4 6-2 9 2 4 8 9 12 12 4-3 10-8 12-12 2-3 1-7-2-9-4-3-9 0-10 4z"/>
</svg>
